<?xml version="1.0" encoding="UTF-8"?>
<svg width="60px" height="60px" viewBox="0 0 60 60" version="1.1" xmlns="http://www.w3.org/2000/svg" xmlns:xlink="http://www.w3.org/1999/xlink">
    <title>icn/circleLarge/icnTrackingDelivered</title>
    <g id="Symbols" stroke="none" stroke-width="1" fill="none" fill-rule="evenodd">
        <g id="Issues-Board---Dashboard" transform="translate(-566.000000, -3858.000000)">
            <g id="icn/circleLarge/icnTrackingDelivered" transform="translate(566.000000, 3858.000000)">
                <g id="Group-9" fill="#4840D2">
                    <circle id="Oval" cx="30" cy="30" r="30"></circle>
                </g>
                <g id="Icon/Button/Tick-White" transform="translate(21.833333, 21.833333)" fill="#FFFFFF" fill-rule="nonzero">
                    <path d="M16.0579404,2.52030855 C16.5023714,1.84469248 16.3977876,0.865745701 15.824346,0.333769731 C15.2509044,-0.198206239 14.4257556,-0.0817629247 13.9813246,0.593853153 L6.10872629,12.6463581 C5.66429529,13.3219742 5.76887907,14.300921 6.34232069,14.8328969 C6.91576231,15.3648729 7.74091111,15.2484296 8.18534211,14.5728135 L16.0579404,2.52030855 L16.0579404,2.52030855 Z M5.80674388,14.6953201 C6.34660886,15.3237822 7.22190294,15.3237822 7.76176793,14.6953201 C8.30163291,14.0668579 8.30163291,13.0479195 7.76176793,12.4194574 L2.35992279,7.4713466 C1.8200578,6.84288447 0.944763722,6.84288447 0.404898738,7.4713466 C-0.134966246,8.09980873 -0.134966246,9.11874718 0.404898738,9.74720931 L5.80674388,14.6953201 L5.80674388,14.6953201 Z" id="Icon---Check"></path>
                </g>
            </g>
        </g>
    </g>
</svg>