<?xml version="1.0" encoding="UTF-8"?>
<svg width="60px" height="60px" viewBox="0 0 60 60" version="1.1" xmlns="http://www.w3.org/2000/svg" xmlns:xlink="http://www.w3.org/1999/xlink">
    <title>Group 10</title>
    <g id="Symbols" stroke="none" stroke-width="1" fill="none" fill-rule="evenodd">
        <g id="Issues-Board---Dashboard" transform="translate(-494.000000, -1725.000000)">
            <g id="Group-10" transform="translate(494.000000, 1725.000000)">
                <circle id="Oval" fill="#4840D2" cx="30" cy="30" r="30"></circle>
                <rect id="ViewBox" x="18" y="18" width="24" height="24"></rect>
                <path d="M30,20 C24.4771525,20 20,24.4771525 20,30 C19.9912578,32.3091344 20.7907922,34.5485381 22.26,36.33 L20.26,38.33 C19.9762554,38.6175607 19.8934033,39.0476029 20.05,39.42 C20.2198683,39.7879877 20.5950562,40.0170498 21,40 L30,40 C35.5228475,40 40,35.5228475 40,30 C40,24.4771525 35.5228475,20 30,20 L30,20 Z M30,38 L23.41,38 L24.34,37.07 C24.7277236,36.6799625 24.7277236,36.0500375 24.34,35.66 C21.6398833,32.9628832 21.2208842,28.7340601 23.3392271,25.5595219 C25.45757,22.3849838 29.5233235,21.1487988 33.050216,22.6069134 C36.5771086,24.065028 38.5829457,27.8113758 37.8411267,31.5550069 C37.0993077,35.298638 33.8164198,37.996999 30,38 L30,38 Z" id="Shape" fill="#FFFFFF" fill-rule="nonzero"></path>
            </g>
        </g>
    </g>
</svg>