<?xml version="1.0" encoding="UTF-8"?>
<svg width="60px" height="60px" viewBox="0 0 60 60" version="1.1" xmlns="http://www.w3.org/2000/svg" xmlns:xlink="http://www.w3.org/1999/xlink">
    <title>Group 29</title>
    <g id="Symbols" stroke="none" stroke-width="1" fill="none" fill-rule="evenodd">
        <g id="Issues-Board---Dashboard" transform="translate(-561.000000, -2818.000000)">
            <g id="Group-29" transform="translate(561.000000, 2818.000000)">
                <g id="Group-10" fill="#4840D2">
                    <circle id="Oval" cx="30" cy="30" r="30"></circle>
                </g>
                <g id="fluent:lock-closed-12-regular" transform="translate(18.000000, 18.000000)">
                    <rect id="ViewBox" x="0" y="0" width="24" height="24"></rect>
                    <path d="M8,8 L8,6 C8,3.790861 9.790861,2 12,2 C14.209139,2 16,3.790861 16,6 L16,8 L17,8 C17.7956495,8 18.5587112,8.31607052 19.1213203,8.87867966 C19.6839295,9.44128879 20,10.2043505 20,11 L20,19 C20,20.6568542 18.6568542,22 17,22 L7,22 C5.34314575,22 4,20.6568542 4,19 L4,11 C4,9.34314575 5.34314575,8 7,8 L8,8 Z M10,6 L10,8 L14,8 L14,6 C14,4.8954305 13.1045695,4 12,4 C10.8954305,4 10,4.8954305 10,6 Z M7,10 C6.44771525,10 6,10.4477153 6,11 L6,19 C6,19.5522847 6.44771525,20 7,20 L17,20 C17.5522847,20 18,19.5522847 18,19 L18,11 C18,10.4477153 17.5522847,10 17,10 L7,10 Z" id="Shape" fill="#FFFFFF" fill-rule="nonzero"></path>
                </g>
            </g>
        </g>
    </g>
</svg>