<?xml version="1.0" encoding="UTF-8"?>
<svg width="60px" height="60px" viewBox="0 0 60 60" version="1.1" xmlns="http://www.w3.org/2000/svg" xmlns:xlink="http://www.w3.org/1999/xlink">
    <title>Group 13</title>
    <g id="Symbols" stroke="none" stroke-width="1" fill="none" fill-rule="evenodd">
        <g id="Issues-Board---Dashboard" transform="translate(-404.000000, -1974.000000)">
            <g id="Group-13" transform="translate(404.000000, 1974.000000)">
                <circle id="Oval" fill="#4840D2" cx="30" cy="30" r="30"></circle>
                <path d="M40,24 C40,22.9 39.1,22 38,22 L22,22 C20.9,22 20,22.9 20,24 L20,36 C20,37.1 20.9,38 22,38 L38,38 C39.1,38 40,37.1 40,36 L40,24 Z M38,24 L30,29 L22,24 L38,24 Z M38,36 L22,36 L22,26 L30,31 L38,26 L38,36 Z" id="Shape" fill="#FFFFFF" fill-rule="nonzero"></path>
            </g>
        </g>
    </g>
</svg>